<mxfile host="app.diagrams.net" modified="2021-03-22T10:53:37.571Z" agent="5.0 (Windows NT 10.0; Win64; x64) AppleWebKit/537.36 (KHTML, like Gecko) Chrome/89.0.4389.90 Safari/537.36" etag="0IFN3jUcVqHT1ZyeQGMo" version="14.4.9" type="github">
  <diagram id="jDwOlXXlZYKarOEkvw4r" name="Page-1">
    <mxGraphModel dx="1422" dy="738" grid="1" gridSize="10" guides="1" tooltips="1" connect="1" arrows="1" fold="1" page="1" pageScale="1" pageWidth="827" pageHeight="1169" math="0" shadow="0">
      <root>
        <mxCell id="0" />
        <mxCell id="1" parent="0" />
        <mxCell id="uaaO6XhS_xi1VFZOWC20-6" style="edgeStyle=orthogonalEdgeStyle;rounded=0;orthogonalLoop=1;jettySize=auto;html=1;" edge="1" parent="1" source="uaaO6XhS_xi1VFZOWC20-1" target="uaaO6XhS_xi1VFZOWC20-2">
          <mxGeometry relative="1" as="geometry" />
        </mxCell>
        <mxCell id="uaaO6XhS_xi1VFZOWC20-1" value="商家" style="rounded=0;whiteSpace=wrap;html=1;" vertex="1" parent="1">
          <mxGeometry x="230" y="140" width="120" height="60" as="geometry" />
        </mxCell>
        <mxCell id="uaaO6XhS_xi1VFZOWC20-7" style="edgeStyle=orthogonalEdgeStyle;rounded=0;orthogonalLoop=1;jettySize=auto;html=1;entryX=0;entryY=0.5;entryDx=0;entryDy=0;" edge="1" parent="1" source="uaaO6XhS_xi1VFZOWC20-2" target="uaaO6XhS_xi1VFZOWC20-5">
          <mxGeometry relative="1" as="geometry" />
        </mxCell>
        <mxCell id="uaaO6XhS_xi1VFZOWC20-9" style="edgeStyle=orthogonalEdgeStyle;rounded=0;orthogonalLoop=1;jettySize=auto;html=1;entryX=1;entryY=0.5;entryDx=0;entryDy=0;" edge="1" parent="1" source="uaaO6XhS_xi1VFZOWC20-2" target="uaaO6XhS_xi1VFZOWC20-1">
          <mxGeometry relative="1" as="geometry" />
        </mxCell>
        <mxCell id="uaaO6XhS_xi1VFZOWC20-2" value="IPL" style="rounded=0;whiteSpace=wrap;html=1;" vertex="1" parent="1">
          <mxGeometry x="510" y="140" width="120" height="60" as="geometry" />
        </mxCell>
        <mxCell id="uaaO6XhS_xi1VFZOWC20-3" value="店铺" style="rounded=0;whiteSpace=wrap;html=1;" vertex="1" parent="1">
          <mxGeometry x="230" y="350" width="120" height="60" as="geometry" />
        </mxCell>
        <mxCell id="uaaO6XhS_xi1VFZOWC20-4" value="店铺" style="rounded=0;whiteSpace=wrap;html=1;" vertex="1" parent="1">
          <mxGeometry x="510" y="350" width="120" height="60" as="geometry" />
        </mxCell>
        <mxCell id="uaaO6XhS_xi1VFZOWC20-8" style="edgeStyle=orthogonalEdgeStyle;rounded=0;orthogonalLoop=1;jettySize=auto;html=1;entryX=1;entryY=0.5;entryDx=0;entryDy=0;" edge="1" parent="1" source="uaaO6XhS_xi1VFZOWC20-5" target="uaaO6XhS_xi1VFZOWC20-2">
          <mxGeometry relative="1" as="geometry" />
        </mxCell>
        <mxCell id="uaaO6XhS_xi1VFZOWC20-5" value="第三方（例 亚马逊）" style="rounded=0;whiteSpace=wrap;html=1;" vertex="1" parent="1">
          <mxGeometry x="760" y="140" width="120" height="60" as="geometry" />
        </mxCell>
      </root>
    </mxGraphModel>
  </diagram>
</mxfile>
